<svg width="99" height="79" viewBox="0 0 99 79" fill="none" xmlns="http://www.w3.org/2000/svg">
<rect width="37.125" height="15.4568" rx="7" fill="#919191"/>
<rect y="14.7832" width="99" height="18.145" rx="7" fill="#919191"/>
<rect y="5.375" width="99" height="17.4729" rx="7" fill="#919191"/>
<rect x="6.1875" y="10.7539" width="86.625" height="10.7526" rx="5.37629" fill="#023E7D"/>
<rect y="14.7832" width="99" height="63.8434" rx="7" fill="#C7C7C7"/>
<g clip-path="url(#clip0_325_1545)">
<path d="M49.6643 28.5977H49.9516C52.6058 28.6073 66.0544 28.7042 69.6805 29.6794C70.7767 29.977 71.7757 30.5571 72.5774 31.3617C73.3792 32.1663 73.9558 33.1672 74.2495 34.2645C74.5756 35.4915 74.8049 37.1156 74.9599 38.7915L74.9922 39.1273L75.0632 39.9668L75.089 40.3026C75.2989 43.2539 75.3247 46.0179 75.328 46.6217V46.8638C75.3247 47.4903 75.2957 50.4415 75.0632 53.5155L75.0374 53.8545L75.0083 54.1903C74.8469 56.0373 74.6079 57.8713 74.2495 59.221C73.9558 60.3183 73.3792 61.3192 72.5774 62.1238C71.7757 62.9285 70.7767 63.5085 69.6805 63.8062C65.935 64.8136 51.6985 64.8846 49.7256 64.8879H49.2671C48.2694 64.8879 44.1428 64.8685 39.816 64.72L39.267 64.7006L38.9861 64.6877L38.434 64.6651L37.8818 64.6425C34.2977 64.4842 30.8847 64.2292 29.3122 63.8029C28.2164 63.5056 27.2177 62.926 26.416 62.122C25.6142 61.318 25.0374 60.3177 24.7432 59.221C24.3848 57.8746 24.1459 56.0373 23.9844 54.1903L23.9586 53.8513L23.9327 53.5155C23.7725 51.3276 23.6842 49.135 23.668 46.9413L23.668 46.5442C23.6744 45.85 23.7003 43.4508 23.8746 40.8031L23.8972 40.4705L23.9069 40.3026L23.9327 39.9668L24.0038 39.1273L24.0361 38.7915C24.1911 37.1156 24.4203 35.4882 24.7464 34.2645C25.0402 33.1672 25.6167 32.1663 26.4185 31.3617C27.2203 30.5571 28.2192 29.977 29.3154 29.6794C30.8879 29.2596 34.3009 29.0013 37.885 28.8398L38.434 28.8172L38.9893 28.7979L39.267 28.7882L39.8192 28.7656C42.8922 28.6668 45.9665 28.6119 49.0411 28.6009L49.6643 28.5977ZM44.3333 38.9626V54.5197L57.756 46.7444L44.3333 38.9626Z" fill="#023E7D"/>
</g>
<defs>
<clipPath id="clip0_325_1545">
<rect width="51.6632" height="51.6632" fill="white" transform="translate(23.668 22.1426)"/>
</clipPath>
</defs>
</svg>
