<svg width="1275" height="113" viewBox="0 0 1275 113" fill="none" xmlns="http://www.w3.org/2000/svg">
<path d="M268.796 36H265.832L256.914 22.506V36H253.95V17.904H256.914L265.832 31.372V17.904H268.796V36ZM287.222 32.308H279.656L278.356 36H275.262L281.736 17.904H285.168L291.642 36H288.522L287.222 32.308ZM286.39 29.89L283.452 21.492L280.488 29.89H286.39ZM309.771 17.93V20.348H304.961V36H301.997V20.348H297.161V17.93H309.771ZM319.377 17.93V36H316.413V17.93H319.377ZM335.15 36.182C333.469 36.182 331.918 35.792 330.496 35.012C329.092 34.2147 327.974 33.114 327.142 31.71C326.328 30.2887 325.92 28.694 325.92 26.926C325.92 25.158 326.328 23.572 327.142 22.168C327.974 20.764 329.092 19.672 330.496 18.892C331.918 18.0947 333.469 17.696 335.15 17.696C336.849 17.696 338.4 18.0947 339.804 18.892C341.226 19.672 342.344 20.764 343.158 22.168C343.973 23.572 344.38 25.158 344.38 26.926C344.38 28.694 343.973 30.2887 343.158 31.71C342.344 33.114 341.226 34.2147 339.804 35.012C338.4 35.792 336.849 36.182 335.15 36.182ZM335.15 33.608C336.346 33.608 337.412 33.3393 338.348 32.802C339.284 32.2473 340.012 31.4673 340.532 30.462C341.07 29.4393 341.338 28.2607 341.338 26.926C341.338 25.5913 341.07 24.4213 340.532 23.416C340.012 22.4107 339.284 21.6393 338.348 21.102C337.412 20.5647 336.346 20.296 335.15 20.296C333.954 20.296 332.888 20.5647 331.952 21.102C331.016 21.6393 330.28 22.4107 329.742 23.416C329.222 24.4213 328.962 25.5913 328.962 26.926C328.962 28.2607 329.222 29.4393 329.742 30.462C330.28 31.4673 331.016 32.2473 331.952 32.802C332.888 33.3393 333.954 33.608 335.15 33.608ZM365.783 36H362.819L353.901 22.506V36H350.937V17.904H353.901L362.819 31.372V17.904H365.783V36ZM384.209 32.308H376.643L375.343 36H372.249L378.723 17.904H382.155L388.629 36H385.509L384.209 32.308ZM383.377 29.89L380.439 21.492L377.475 29.89H383.377ZM398.048 33.608H404.158V36H395.084V17.93H398.048V33.608ZM433.307 23.312C433.307 24.2307 433.09 25.0973 432.657 25.912C432.224 26.7267 431.53 27.394 430.577 27.914C429.624 28.4167 428.402 28.668 426.911 28.668H423.635V36H420.671V17.93H426.911C428.298 17.93 429.468 18.1727 430.421 18.658C431.392 19.126 432.111 19.7673 432.579 20.582C433.064 21.3967 433.307 22.3067 433.307 23.312ZM426.911 26.25C428.038 26.25 428.878 25.9987 429.433 25.496C429.988 24.976 430.265 24.248 430.265 23.312C430.265 21.336 429.147 20.348 426.911 20.348H423.635V26.25H426.911ZM448.016 36.182C446.334 36.182 444.783 35.792 443.362 35.012C441.958 34.2147 440.84 33.114 440.008 31.71C439.193 30.2887 438.786 28.694 438.786 26.926C438.786 25.158 439.193 23.572 440.008 22.168C440.84 20.764 441.958 19.672 443.362 18.892C444.783 18.0947 446.334 17.696 448.016 17.696C449.714 17.696 451.266 18.0947 452.67 18.892C454.091 19.672 455.209 20.764 456.024 22.168C456.838 23.572 457.246 25.158 457.246 26.926C457.246 28.694 456.838 30.2887 456.024 31.71C455.209 33.114 454.091 34.2147 452.67 35.012C451.266 35.792 449.714 36.182 448.016 36.182ZM448.016 33.608C449.212 33.608 450.278 33.3393 451.214 32.802C452.15 32.2473 452.878 31.4673 453.398 30.462C453.935 29.4393 454.204 28.2607 454.204 26.926C454.204 25.5913 453.935 24.4213 453.398 23.416C452.878 22.4107 452.15 21.6393 451.214 21.102C450.278 20.5647 449.212 20.296 448.016 20.296C446.82 20.296 445.754 20.5647 444.818 21.102C443.882 21.6393 443.145 22.4107 442.608 23.416C442.088 24.4213 441.828 25.5913 441.828 26.926C441.828 28.2607 442.088 29.4393 442.608 30.462C443.145 31.4673 443.882 32.2473 444.818 32.802C445.754 33.3393 446.82 33.608 448.016 33.608ZM469.757 36.182C468.543 36.182 467.451 35.974 466.481 35.558C465.51 35.1247 464.747 34.518 464.193 33.738C463.638 32.958 463.361 32.048 463.361 31.008H466.533C466.602 31.788 466.905 32.4293 467.443 32.932C467.997 33.4347 468.769 33.686 469.757 33.686C470.779 33.686 471.577 33.4433 472.149 32.958C472.721 32.4553 473.007 31.814 473.007 31.034C473.007 30.4273 472.825 29.9333 472.461 29.552C472.114 29.1707 471.672 28.876 471.135 28.668C470.615 28.46 469.887 28.2347 468.951 27.992C467.772 27.68 466.81 27.368 466.065 27.056C465.337 26.7267 464.713 26.224 464.193 25.548C463.673 24.872 463.413 23.9707 463.413 22.844C463.413 21.804 463.673 20.894 464.193 20.114C464.713 19.334 465.441 18.736 466.377 18.32C467.313 17.904 468.396 17.696 469.627 17.696C471.377 17.696 472.807 18.138 473.917 19.022C475.043 19.8887 475.667 21.0847 475.789 22.61H472.513C472.461 21.9513 472.149 21.388 471.577 20.92C471.005 20.452 470.251 20.218 469.315 20.218C468.465 20.218 467.772 20.4347 467.235 20.868C466.697 21.3013 466.429 21.9253 466.429 22.74C466.429 23.2947 466.593 23.754 466.923 24.118C467.269 24.4647 467.703 24.742 468.223 24.95C468.743 25.158 469.453 25.3833 470.355 25.626C471.551 25.9553 472.521 26.2847 473.267 26.614C474.029 26.9433 474.671 27.4547 475.191 28.148C475.728 28.824 475.997 29.734 475.997 30.878C475.997 31.7967 475.745 32.6633 475.243 33.478C474.757 34.2927 474.038 34.9513 473.085 35.454C472.149 35.9393 471.039 36.182 469.757 36.182ZM494.808 17.93V20.348H489.998V36H487.034V20.348H482.198V17.93H494.808ZM524.922 23.13C524.454 22.2287 523.804 21.5527 522.972 21.102C522.14 20.634 521.178 20.4 520.086 20.4C518.89 20.4 517.824 20.6687 516.888 21.206C515.952 21.7433 515.215 22.506 514.678 23.494C514.158 24.482 513.898 25.626 513.898 26.926C513.898 28.226 514.158 29.3787 514.678 30.384C515.215 31.372 515.952 32.1347 516.888 32.672C517.824 33.2093 518.89 33.478 520.086 33.478C521.698 33.478 523.006 33.0273 524.012 32.126C525.017 31.2247 525.632 30.0027 525.858 28.46H519.072V26.094H529.03V28.408C528.839 29.812 528.336 31.1033 527.522 32.282C526.724 33.4607 525.676 34.4053 524.376 35.116C523.093 35.8093 521.663 36.156 520.086 36.156C518.387 36.156 516.836 35.766 515.432 34.986C514.028 34.1887 512.91 33.088 512.078 31.684C511.263 30.28 510.856 28.694 510.856 26.926C510.856 25.158 511.263 23.572 512.078 22.168C512.91 20.764 514.028 19.672 515.432 18.892C516.853 18.0947 518.404 17.696 520.086 17.696C522.01 17.696 523.717 18.1727 525.208 19.126C526.716 20.062 527.808 21.3967 528.484 23.13H524.922ZM544.979 36L540.819 28.772H538.557V36H535.593V17.93H541.833C543.22 17.93 544.39 18.1727 545.343 18.658C546.314 19.1433 547.033 19.7933 547.501 20.608C547.986 21.4227 548.229 22.3327 548.229 23.338C548.229 24.5167 547.882 25.5913 547.189 26.562C546.513 27.5153 545.464 28.1653 544.043 28.512L548.515 36H544.979ZM538.557 26.406H541.833C542.942 26.406 543.774 26.1287 544.329 25.574C544.901 25.0193 545.187 24.274 545.187 23.338C545.187 22.402 544.91 21.674 544.355 21.154C543.8 20.6167 542.96 20.348 541.833 20.348H538.557V26.406ZM566.555 32.308H558.989L557.689 36H554.595L561.069 17.904H564.501L570.975 36H567.855L566.555 32.308ZM565.723 29.89L562.785 21.492L559.821 29.89H565.723ZM583.332 17.93C585.256 17.93 586.937 18.3027 588.376 19.048C589.832 19.776 590.95 20.8333 591.73 22.22C592.527 23.5893 592.926 25.1927 592.926 27.03C592.926 28.8673 592.527 30.462 591.73 31.814C590.95 33.166 589.832 34.206 588.376 34.934C586.937 35.6447 585.256 36 583.332 36H577.43V17.93H583.332ZM583.332 33.582C585.446 33.582 587.067 33.01 588.194 31.866C589.32 30.722 589.884 29.11 589.884 27.03C589.884 24.9327 589.32 23.2947 588.194 22.116C587.067 20.9373 585.446 20.348 583.332 20.348H580.394V33.582H583.332ZM602.441 17.93V29.448C602.441 30.8173 602.797 31.8487 603.507 32.542C604.235 33.2353 605.241 33.582 606.523 33.582C607.823 33.582 608.829 33.2353 609.539 32.542C610.267 31.8487 610.631 30.8173 610.631 29.448V17.93H613.595V29.396C613.595 30.8693 613.275 32.1173 612.633 33.14C611.992 34.1627 611.134 34.9253 610.059 35.428C608.985 35.9307 607.797 36.182 606.497 36.182C605.197 36.182 604.01 35.9307 602.935 35.428C601.878 34.9253 601.037 34.1627 600.413 33.14C599.789 32.1173 599.477 30.8693 599.477 29.396V17.93H602.441ZM631.988 32.308H624.422L623.122 36H620.028L626.502 17.904H629.934L636.408 36H633.288L631.988 32.308ZM631.156 29.89L628.218 21.492L625.254 29.89H631.156ZM654.537 17.93V20.348H649.727V36H646.763V20.348H641.927V17.93H654.537ZM664.143 20.322V25.626H670.383V28.044H664.143V33.582H671.163V36H661.179V17.904H671.163V20.322H664.143ZM687.86 26.926C687.86 25.158 688.267 23.572 689.082 22.168C689.914 20.764 691.032 19.672 692.436 18.892C693.857 18.0947 695.408 17.696 697.09 17.696C699.014 17.696 700.721 18.1727 702.212 19.126C703.72 20.062 704.812 21.3967 705.488 23.13H701.926C701.458 22.1767 700.808 21.466 699.976 20.998C699.144 20.53 698.182 20.296 697.09 20.296C695.894 20.296 694.828 20.5647 693.892 21.102C692.956 21.6393 692.219 22.4107 691.682 23.416C691.162 24.4213 690.902 25.5913 690.902 26.926C690.902 28.2607 691.162 29.4307 691.682 30.436C692.219 31.4413 692.956 32.2213 693.892 32.776C694.828 33.3133 695.894 33.582 697.09 33.582C698.182 33.582 699.144 33.348 699.976 32.88C700.808 32.412 701.458 31.7013 701.926 30.748H705.488C704.812 32.4813 703.72 33.816 702.212 34.752C700.721 35.688 699.014 36.156 697.09 36.156C695.391 36.156 693.84 35.766 692.436 34.986C691.032 34.1887 689.914 33.088 689.082 31.684C688.267 30.28 687.86 28.694 687.86 26.926ZM720.839 36.182C719.158 36.182 717.606 35.792 716.185 35.012C714.781 34.2147 713.663 33.114 712.831 31.71C712.016 30.2887 711.609 28.694 711.609 26.926C711.609 25.158 712.016 23.572 712.831 22.168C713.663 20.764 714.781 19.672 716.185 18.892C717.606 18.0947 719.158 17.696 720.839 17.696C722.538 17.696 724.089 18.0947 725.493 18.892C726.914 19.672 728.032 20.764 728.847 22.168C729.662 23.572 730.069 25.158 730.069 26.926C730.069 28.694 729.662 30.2887 728.847 31.71C728.032 33.114 726.914 34.2147 725.493 35.012C724.089 35.792 722.538 36.182 720.839 36.182ZM720.839 33.608C722.035 33.608 723.101 33.3393 724.037 32.802C724.973 32.2473 725.701 31.4673 726.221 30.462C726.758 29.4393 727.027 28.2607 727.027 26.926C727.027 25.5913 726.758 24.4213 726.221 23.416C725.701 22.4107 724.973 21.6393 724.037 21.102C723.101 20.5647 722.035 20.296 720.839 20.296C719.643 20.296 718.577 20.5647 717.641 21.102C716.705 21.6393 715.968 22.4107 715.431 23.416C714.911 24.4213 714.651 25.5913 714.651 26.926C714.651 28.2607 714.911 29.4393 715.431 30.462C715.968 31.4673 716.705 32.2473 717.641 32.802C718.577 33.3393 719.643 33.608 720.839 33.608ZM739.59 33.608H745.7V36H736.626V17.93H739.59V33.608ZM754.783 33.608H760.893V36H751.819V17.93H754.783V33.608ZM769.975 20.322V25.626H776.215V28.044H769.975V33.582H776.995V36H767.011V17.904H776.995V20.322H769.975ZM797.364 23.13C796.896 22.2287 796.246 21.5527 795.414 21.102C794.582 20.634 793.62 20.4 792.528 20.4C791.332 20.4 790.266 20.6687 789.33 21.206C788.394 21.7433 787.657 22.506 787.12 23.494C786.6 24.482 786.34 25.626 786.34 26.926C786.34 28.226 786.6 29.3787 787.12 30.384C787.657 31.372 788.394 32.1347 789.33 32.672C790.266 33.2093 791.332 33.478 792.528 33.478C794.14 33.478 795.449 33.0273 796.454 32.126C797.459 31.2247 798.075 30.0027 798.3 28.46H791.514V26.094H801.472V28.408C801.281 29.812 800.779 31.1033 799.964 32.282C799.167 33.4607 798.118 34.4053 796.818 35.116C795.535 35.8093 794.105 36.156 792.528 36.156C790.829 36.156 789.278 35.766 787.874 34.986C786.47 34.1887 785.352 33.088 784.52 31.684C783.705 30.28 783.298 28.694 783.298 26.926C783.298 25.158 783.705 23.572 784.52 22.168C785.352 20.764 786.47 19.672 787.874 18.892C789.295 18.0947 790.847 17.696 792.528 17.696C794.452 17.696 796.159 18.1727 797.65 19.126C799.158 20.062 800.25 21.3967 800.926 23.13H797.364ZM810.999 20.322V25.626H817.239V28.044H810.999V33.582H818.019V36H808.035V17.904H818.019V20.322H810.999Z" fill="black"/>
<path d="M314.802 62.21H309.33L308.322 65H306.594L311.13 52.526H313.02L317.538 65H315.81L314.802 62.21ZM314.334 60.878L312.066 54.542L309.798 60.878H314.334ZM326.841 54.956C328.041 54.956 329.013 55.322 329.757 56.054C330.501 56.774 330.873 57.818 330.873 59.186V65H329.253V59.42C329.253 58.436 329.007 57.686 328.515 57.17C328.023 56.642 327.351 56.378 326.499 56.378C325.635 56.378 324.945 56.648 324.429 57.188C323.925 57.728 323.673 58.514 323.673 59.546V65H322.035V55.136H323.673V56.54C323.997 56.036 324.435 55.646 324.987 55.37C325.551 55.094 326.169 54.956 326.841 54.956ZM350.803 62.21H345.331L344.323 65H342.595L347.131 52.526H349.021L353.539 65H351.811L350.803 62.21ZM350.335 60.878L348.067 54.542L345.799 60.878H350.335ZM366.784 55.136V65H365.146V63.542C364.834 64.046 364.396 64.442 363.832 64.73C363.28 65.006 362.668 65.144 361.996 65.144C361.228 65.144 360.538 64.988 359.926 64.676C359.314 64.352 358.828 63.872 358.468 63.236C358.12 62.6 357.946 61.826 357.946 60.914V55.136H359.566V60.698C359.566 61.67 359.812 62.42 360.304 62.948C360.796 63.464 361.468 63.722 362.32 63.722C363.196 63.722 363.886 63.452 364.39 62.912C364.894 62.372 365.146 61.586 365.146 60.554V55.136H366.784ZM374.068 56.486V62.3C374.068 62.78 374.17 63.122 374.374 63.326C374.578 63.518 374.932 63.614 375.436 63.614H376.642V65H375.166C374.254 65 373.57 64.79 373.114 64.37C372.658 63.95 372.43 63.26 372.43 62.3V56.486H371.152V55.136H372.43V52.652H374.068V55.136H376.642V56.486H374.068ZM385.449 65.162C384.525 65.162 383.685 64.952 382.929 64.532C382.185 64.112 381.597 63.518 381.165 62.75C380.745 61.97 380.535 61.07 380.535 60.05C380.535 59.042 380.751 58.154 381.183 57.386C381.627 56.606 382.227 56.012 382.983 55.604C383.739 55.184 384.585 54.974 385.521 54.974C386.457 54.974 387.303 55.184 388.059 55.604C388.815 56.012 389.409 56.6 389.841 57.368C390.285 58.136 390.507 59.03 390.507 60.05C390.507 61.07 390.279 61.97 389.823 62.75C389.379 63.518 388.773 64.112 388.005 64.532C387.237 64.952 386.385 65.162 385.449 65.162ZM385.449 63.722C386.037 63.722 386.589 63.584 387.105 63.308C387.621 63.032 388.035 62.618 388.347 62.066C388.671 61.514 388.833 60.842 388.833 60.05C388.833 59.258 388.677 58.586 388.365 58.034C388.053 57.482 387.645 57.074 387.141 56.81C386.637 56.534 386.091 56.396 385.503 56.396C384.903 56.396 384.351 56.534 383.847 56.81C383.355 57.074 382.959 57.482 382.659 58.034C382.359 58.586 382.209 59.258 382.209 60.05C382.209 60.854 382.353 61.532 382.641 62.084C382.941 62.636 383.337 63.05 383.829 63.326C384.321 63.59 384.861 63.722 385.449 63.722ZM399.986 54.956C401.186 54.956 402.158 55.322 402.902 56.054C403.646 56.774 404.018 57.818 404.018 59.186V65H402.398V59.42C402.398 58.436 402.152 57.686 401.66 57.17C401.168 56.642 400.496 56.378 399.644 56.378C398.78 56.378 398.09 56.648 397.574 57.188C397.07 57.728 396.818 58.514 396.818 59.546V65H395.18V55.136H396.818V56.54C397.142 56.036 397.58 55.646 398.132 55.37C398.696 55.094 399.314 54.956 399.986 54.956ZM413.516 65.162C412.592 65.162 411.752 64.952 410.996 64.532C410.252 64.112 409.664 63.518 409.232 62.75C408.812 61.97 408.602 61.07 408.602 60.05C408.602 59.042 408.818 58.154 409.25 57.386C409.694 56.606 410.294 56.012 411.05 55.604C411.806 55.184 412.652 54.974 413.588 54.974C414.524 54.974 415.37 55.184 416.126 55.604C416.882 56.012 417.476 56.6 417.908 57.368C418.352 58.136 418.574 59.03 418.574 60.05C418.574 61.07 418.346 61.97 417.89 62.75C417.446 63.518 416.84 64.112 416.072 64.532C415.304 64.952 414.452 65.162 413.516 65.162ZM413.516 63.722C414.104 63.722 414.656 63.584 415.172 63.308C415.688 63.032 416.102 62.618 416.414 62.066C416.738 61.514 416.9 60.842 416.9 60.05C416.9 59.258 416.744 58.586 416.432 58.034C416.12 57.482 415.712 57.074 415.208 56.81C414.704 56.534 414.158 56.396 413.57 56.396C412.97 56.396 412.418 56.534 411.914 56.81C411.422 57.074 411.026 57.482 410.726 58.034C410.426 58.586 410.276 59.258 410.276 60.05C410.276 60.854 410.42 61.532 410.708 62.084C411.008 62.636 411.404 63.05 411.896 63.326C412.388 63.59 412.928 63.722 413.516 63.722ZM435.11 54.956C435.878 54.956 436.562 55.118 437.162 55.442C437.762 55.754 438.236 56.228 438.584 56.864C438.932 57.5 439.106 58.274 439.106 59.186V65H437.486V59.42C437.486 58.436 437.24 57.686 436.748 57.17C436.268 56.642 435.614 56.378 434.786 56.378C433.934 56.378 433.256 56.654 432.752 57.206C432.248 57.746 431.996 58.532 431.996 59.564V65H430.376V59.42C430.376 58.436 430.13 57.686 429.638 57.17C429.158 56.642 428.504 56.378 427.676 56.378C426.824 56.378 426.146 56.654 425.642 57.206C425.138 57.746 424.886 58.532 424.886 59.564V65H423.248V55.136H424.886V56.558C425.21 56.042 425.642 55.646 426.182 55.37C426.734 55.094 427.34 54.956 428 54.956C428.828 54.956 429.56 55.142 430.196 55.514C430.832 55.886 431.306 56.432 431.618 57.152C431.894 56.456 432.35 55.916 432.986 55.532C433.622 55.148 434.33 54.956 435.11 54.956ZM448.615 65.162C447.691 65.162 446.851 64.952 446.095 64.532C445.351 64.112 444.763 63.518 444.331 62.75C443.911 61.97 443.701 61.07 443.701 60.05C443.701 59.042 443.917 58.154 444.349 57.386C444.793 56.606 445.393 56.012 446.149 55.604C446.905 55.184 447.751 54.974 448.687 54.974C449.623 54.974 450.469 55.184 451.225 55.604C451.981 56.012 452.575 56.6 453.007 57.368C453.451 58.136 453.673 59.03 453.673 60.05C453.673 61.07 453.445 61.97 452.989 62.75C452.545 63.518 451.939 64.112 451.171 64.532C450.403 64.952 449.551 65.162 448.615 65.162ZM448.615 63.722C449.203 63.722 449.755 63.584 450.271 63.308C450.787 63.032 451.201 62.618 451.513 62.066C451.837 61.514 451.999 60.842 451.999 60.05C451.999 59.258 451.843 58.586 451.531 58.034C451.219 57.482 450.811 57.074 450.307 56.81C449.803 56.534 449.257 56.396 448.669 56.396C448.069 56.396 447.517 56.534 447.013 56.81C446.521 57.074 446.125 57.482 445.825 58.034C445.525 58.586 445.375 59.258 445.375 60.05C445.375 60.854 445.519 61.532 445.807 62.084C446.107 62.636 446.503 63.05 446.995 63.326C447.487 63.59 448.027 63.722 448.615 63.722ZM467.094 55.136V65H465.456V63.542C465.144 64.046 464.706 64.442 464.142 64.73C463.59 65.006 462.978 65.144 462.306 65.144C461.538 65.144 460.848 64.988 460.236 64.676C459.624 64.352 459.138 63.872 458.778 63.236C458.43 62.6 458.256 61.826 458.256 60.914V55.136H459.876V60.698C459.876 61.67 460.122 62.42 460.614 62.948C461.106 63.464 461.778 63.722 462.63 63.722C463.506 63.722 464.196 63.452 464.7 62.912C465.204 62.372 465.456 61.586 465.456 60.554V55.136H467.094ZM475.872 65.162C475.116 65.162 474.438 65.036 473.838 64.784C473.238 64.52 472.764 64.16 472.416 63.704C472.068 63.236 471.876 62.702 471.84 62.102H473.532C473.58 62.594 473.808 62.996 474.216 63.308C474.636 63.62 475.182 63.776 475.854 63.776C476.478 63.776 476.97 63.638 477.33 63.362C477.69 63.086 477.87 62.738 477.87 62.318C477.87 61.886 477.678 61.568 477.294 61.364C476.91 61.148 476.316 60.938 475.512 60.734C474.78 60.542 474.18 60.35 473.712 60.158C473.256 59.954 472.86 59.66 472.524 59.276C472.2 58.88 472.038 58.364 472.038 57.728C472.038 57.224 472.188 56.762 472.488 56.342C472.788 55.922 473.214 55.592 473.766 55.352C474.318 55.1 474.948 54.974 475.656 54.974C476.748 54.974 477.63 55.25 478.302 55.802C478.974 56.354 479.334 57.11 479.382 58.07H477.744C477.708 57.554 477.498 57.14 477.114 56.828C476.742 56.516 476.238 56.36 475.602 56.36C475.014 56.36 474.546 56.486 474.198 56.738C473.85 56.99 473.676 57.32 473.676 57.728C473.676 58.052 473.778 58.322 473.982 58.538C474.198 58.742 474.462 58.91 474.774 59.042C475.098 59.162 475.542 59.3 476.106 59.456C476.814 59.648 477.39 59.84 477.834 60.032C478.278 60.212 478.656 60.488 478.968 60.86C479.292 61.232 479.46 61.718 479.472 62.318C479.472 62.858 479.322 63.344 479.022 63.776C478.722 64.208 478.296 64.55 477.744 64.802C477.204 65.042 476.58 65.162 475.872 65.162ZM485.996 62.732L483.98 67.574H482.882L484.196 62.732H485.996ZM497.099 58.718C497.099 57.494 497.375 56.396 497.927 55.424C498.479 54.44 499.229 53.672 500.177 53.12C501.137 52.568 502.199 52.292 503.363 52.292C504.731 52.292 505.925 52.622 506.945 53.282C507.965 53.942 508.709 54.878 509.177 56.09H507.215C506.867 55.334 506.363 54.752 505.703 54.344C505.055 53.936 504.275 53.732 503.363 53.732C502.487 53.732 501.701 53.936 501.005 54.344C500.309 54.752 499.763 55.334 499.367 56.09C498.971 56.834 498.773 57.71 498.773 58.718C498.773 59.714 498.971 60.59 499.367 61.346C499.763 62.09 500.309 62.666 501.005 63.074C501.701 63.482 502.487 63.686 503.363 63.686C504.275 63.686 505.055 63.488 505.703 63.092C506.363 62.684 506.867 62.102 507.215 61.346H509.177C508.709 62.546 507.965 63.476 506.945 64.136C505.925 64.784 504.731 65.108 503.363 65.108C502.199 65.108 501.137 64.838 500.177 64.298C499.229 63.746 498.479 62.984 497.927 62.012C497.375 61.04 497.099 59.942 497.099 58.718ZM522.524 56.126C522.524 57.17 522.164 58.04 521.444 58.736C520.736 59.42 519.65 59.762 518.186 59.762H515.774V65H514.136V52.454H518.186C519.602 52.454 520.676 52.796 521.408 53.48C522.152 54.164 522.524 55.046 522.524 56.126ZM518.186 58.412C519.098 58.412 519.77 58.214 520.202 57.818C520.634 57.422 520.85 56.858 520.85 56.126C520.85 54.578 519.962 53.804 518.186 53.804H515.774V58.412H518.186ZM528.718 53.786V57.98H533.29V59.33H528.718V63.65H533.83V65H527.08V52.436H533.83V53.786H528.718ZM555.777 65L554.139 63.344C553.527 63.98 552.873 64.454 552.177 64.766C551.481 65.066 550.695 65.216 549.819 65.216C548.955 65.216 548.187 65.06 547.515 64.748C546.855 64.436 546.339 63.992 545.967 63.416C545.607 62.84 545.427 62.168 545.427 61.4C545.427 60.524 545.673 59.756 546.165 59.096C546.669 58.424 547.407 57.896 548.379 57.512C547.995 57.056 547.719 56.636 547.551 56.252C547.383 55.868 547.299 55.448 547.299 54.992C547.299 54.464 547.431 53.99 547.695 53.57C547.971 53.138 548.361 52.802 548.865 52.562C549.369 52.322 549.951 52.202 550.611 52.202C551.259 52.202 551.823 52.328 552.303 52.58C552.783 52.832 553.143 53.186 553.383 53.642C553.623 54.086 553.731 54.584 553.707 55.136H552.069C552.081 54.644 551.943 54.26 551.655 53.984C551.367 53.696 550.995 53.552 550.539 53.552C550.059 53.552 549.669 53.69 549.369 53.966C549.081 54.23 548.937 54.572 548.937 54.992C548.937 55.352 549.033 55.7 549.225 56.036C549.429 56.372 549.765 56.786 550.233 57.278L553.977 61.04L554.301 60.536L555.525 58.484H557.289L555.813 61.04C555.609 61.4 555.369 61.778 555.093 62.174L557.919 65H555.777ZM549.819 63.812C550.467 63.812 551.049 63.686 551.565 63.434C552.093 63.182 552.591 62.792 553.059 62.264L549.369 58.556C547.833 59.144 547.065 60.074 547.065 61.346C547.065 62.054 547.317 62.642 547.821 63.11C548.337 63.578 549.003 63.812 549.819 63.812ZM568.68 58.718C568.68 57.494 568.956 56.396 569.508 55.424C570.06 54.44 570.81 53.672 571.758 53.12C572.718 52.568 573.78 52.292 574.944 52.292C576.312 52.292 577.506 52.622 578.526 53.282C579.546 53.942 580.29 54.878 580.758 56.09H578.796C578.448 55.334 577.944 54.752 577.284 54.344C576.636 53.936 575.856 53.732 574.944 53.732C574.068 53.732 573.282 53.936 572.586 54.344C571.89 54.752 571.344 55.334 570.948 56.09C570.552 56.834 570.354 57.71 570.354 58.718C570.354 59.714 570.552 60.59 570.948 61.346C571.344 62.09 571.89 62.666 572.586 63.074C573.282 63.482 574.068 63.686 574.944 63.686C575.856 63.686 576.636 63.488 577.284 63.092C577.944 62.684 578.448 62.102 578.796 61.346H580.758C580.29 62.546 579.546 63.476 578.526 64.136C577.506 64.784 576.312 65.108 574.944 65.108C573.78 65.108 572.718 64.838 571.758 64.298C570.81 63.746 570.06 62.984 569.508 62.012C568.956 61.04 568.68 59.942 568.68 58.718ZM594.105 56.126C594.105 57.17 593.745 58.04 593.025 58.736C592.317 59.42 591.231 59.762 589.767 59.762H587.355V65H585.717V52.454H589.767C591.183 52.454 592.257 52.796 592.989 53.48C593.733 54.164 594.105 55.046 594.105 56.126ZM589.767 58.412C590.679 58.412 591.351 58.214 591.783 57.818C592.215 57.422 592.431 56.858 592.431 56.126C592.431 54.578 591.543 53.804 589.767 53.804H587.355V58.412H589.767ZM600.298 53.786V57.98H604.87V59.33H600.298V63.65H605.41V65H598.66V52.436H605.41V53.786H600.298ZM627.592 65H625.954L619.366 55.01V65H617.728V52.436H619.366L625.954 62.408V52.436H627.592V65ZM640.32 62.21H634.848L633.84 65H632.112L636.648 52.526H638.538L643.056 65H641.328L640.32 62.21ZM639.852 60.878L637.584 54.542L635.316 60.878H639.852ZM654.969 62.21H649.497L648.489 65H646.761L651.297 52.526H653.187L657.705 65H655.977L654.969 62.21ZM654.501 60.878L652.233 54.542L649.965 60.878H654.501ZM661.59 58.718C661.59 57.494 661.866 56.396 662.418 55.424C662.97 54.44 663.72 53.672 664.668 53.12C665.628 52.568 666.69 52.292 667.854 52.292C669.222 52.292 670.416 52.622 671.436 53.282C672.456 53.942 673.2 54.878 673.668 56.09H671.706C671.358 55.334 670.854 54.752 670.194 54.344C669.546 53.936 668.766 53.732 667.854 53.732C666.978 53.732 666.192 53.936 665.496 54.344C664.8 54.752 664.254 55.334 663.858 56.09C663.462 56.834 663.264 57.71 663.264 58.718C663.264 59.714 663.462 60.59 663.858 61.346C664.254 62.09 664.8 62.666 665.496 63.074C666.192 63.482 666.978 63.686 667.854 63.686C668.766 63.686 669.546 63.488 670.194 63.092C670.854 62.684 671.358 62.102 671.706 61.346H673.668C673.2 62.546 672.456 63.476 671.436 64.136C670.416 64.784 669.222 65.108 667.854 65.108C666.69 65.108 665.628 64.838 664.668 64.298C663.72 63.746 662.97 62.984 662.418 62.012C661.866 61.04 661.59 59.942 661.59 58.718ZM695.449 56.09C695.101 55.358 694.597 54.794 693.937 54.398C693.277 53.99 692.509 53.786 691.633 53.786C690.757 53.786 689.965 53.99 689.257 54.398C688.561 54.794 688.009 55.37 687.601 56.126C687.205 56.87 687.007 57.734 687.007 58.718C687.007 59.702 687.205 60.566 687.601 61.31C688.009 62.054 688.561 62.63 689.257 63.038C689.965 63.434 690.757 63.632 691.633 63.632C692.857 63.632 693.865 63.266 694.657 62.534C695.449 61.802 695.911 60.812 696.043 59.564H691.039V58.232H697.789V59.492C697.693 60.524 697.369 61.472 696.817 62.336C696.265 63.188 695.539 63.866 694.639 64.37C693.739 64.862 692.737 65.108 691.633 65.108C690.469 65.108 689.407 64.838 688.447 64.298C687.487 63.746 686.725 62.984 686.161 62.012C685.609 61.04 685.333 59.942 685.333 58.718C685.333 57.494 685.609 56.396 686.161 55.424C686.725 54.44 687.487 53.678 688.447 53.138C689.407 52.586 690.469 52.31 691.633 52.31C692.965 52.31 694.141 52.64 695.161 53.3C696.193 53.96 696.943 54.89 697.411 56.09H695.449ZM704.113 56.738C704.401 56.174 704.809 55.736 705.337 55.424C705.877 55.112 706.531 54.956 707.299 54.956V56.648H706.867C705.031 56.648 704.113 57.644 704.113 59.636V65H702.475V55.136H704.113V56.738ZM711.098 60.032C711.098 59.024 711.302 58.142 711.71 57.386C712.118 56.618 712.676 56.024 713.384 55.604C714.104 55.184 714.902 54.974 715.778 54.974C716.642 54.974 717.392 55.16 718.028 55.532C718.664 55.904 719.138 56.372 719.45 56.936V55.136H721.106V65H719.45V63.164C719.126 63.74 718.64 64.22 717.992 64.604C717.356 64.976 716.612 65.162 715.76 65.162C714.884 65.162 714.092 64.946 713.384 64.514C712.676 64.082 712.118 63.476 711.71 62.696C711.302 61.916 711.098 61.028 711.098 60.032ZM719.45 60.05C719.45 59.306 719.3 58.658 719 58.106C718.7 57.554 718.292 57.134 717.776 56.846C717.272 56.546 716.714 56.396 716.102 56.396C715.49 56.396 714.932 56.54 714.428 56.828C713.924 57.116 713.522 57.536 713.222 58.088C712.922 58.64 712.772 59.288 712.772 60.032C712.772 60.788 712.922 61.448 713.222 62.012C713.522 62.564 713.924 62.99 714.428 63.29C714.932 63.578 715.49 63.722 716.102 63.722C716.714 63.722 717.272 63.578 717.776 63.29C718.292 62.99 718.7 62.564 719 62.012C719.3 61.448 719.45 60.794 719.45 60.05ZM725.782 60.032C725.782 59.024 725.986 58.142 726.394 57.386C726.802 56.618 727.36 56.024 728.068 55.604C728.788 55.184 729.592 54.974 730.48 54.974C731.248 54.974 731.962 55.154 732.622 55.514C733.282 55.862 733.786 56.324 734.134 56.9V51.68H735.79V65H734.134V63.146C733.81 63.734 733.33 64.22 732.694 64.604C732.058 64.976 731.314 65.162 730.462 65.162C729.586 65.162 728.788 64.946 728.068 64.514C727.36 64.082 726.802 63.476 726.394 62.696C725.986 61.916 725.782 61.028 725.782 60.032ZM734.134 60.05C734.134 59.306 733.984 58.658 733.684 58.106C733.384 57.554 732.976 57.134 732.46 56.846C731.956 56.546 731.398 56.396 730.786 56.396C730.174 56.396 729.616 56.54 729.112 56.828C728.608 57.116 728.206 57.536 727.906 58.088C727.606 58.64 727.456 59.288 727.456 60.032C727.456 60.788 727.606 61.448 727.906 62.012C728.206 62.564 728.608 62.99 729.112 63.29C729.616 63.578 730.174 63.722 730.786 63.722C731.398 63.722 731.956 63.578 732.46 63.29C732.976 62.99 733.384 62.564 733.684 62.012C733.984 61.448 734.134 60.794 734.134 60.05ZM750.078 59.69C750.078 60.002 750.06 60.332 750.024 60.68H742.14C742.2 61.652 742.53 62.414 743.13 62.966C743.742 63.506 744.48 63.776 745.344 63.776C746.052 63.776 746.64 63.614 747.108 63.29C747.588 62.954 747.924 62.51 748.116 61.958H749.88C749.616 62.906 749.088 63.68 748.296 64.28C747.504 64.868 746.52 65.162 745.344 65.162C744.408 65.162 743.568 64.952 742.824 64.532C742.092 64.112 741.516 63.518 741.096 62.75C740.676 61.97 740.466 61.07 740.466 60.05C740.466 59.03 740.67 58.136 741.078 57.368C741.486 56.6 742.056 56.012 742.788 55.604C743.532 55.184 744.384 54.974 745.344 54.974C746.28 54.974 747.108 55.178 747.828 55.586C748.548 55.994 749.1 56.558 749.484 57.278C749.88 57.986 750.078 58.79 750.078 59.69ZM748.386 59.348C748.386 58.724 748.248 58.19 747.972 57.746C747.696 57.29 747.318 56.948 746.838 56.72C746.37 56.48 745.848 56.36 745.272 56.36C744.444 56.36 743.736 56.624 743.148 57.152C742.572 57.68 742.242 58.412 742.158 59.348H748.386ZM762.961 56.54H761.125L762.853 52.454H764.023L762.961 56.54ZM775.952 62.21H770.48L769.472 65H767.744L772.28 52.526H774.17L778.688 65H776.96L775.952 62.21ZM775.484 60.878L773.216 54.542L770.948 60.878H775.484ZM783.437 52.454H785.255L783.527 56.54H782.375L783.437 52.454Z" fill="black"/>
<path d="M363.688 86.416C363.688 85.328 363.933 84.352 364.424 83.488C364.915 82.6133 365.581 81.9307 366.424 81.44C367.277 80.9493 368.221 80.704 369.256 80.704C370.472 80.704 371.533 80.9973 372.44 81.584C373.347 82.1707 374.008 83.0027 374.424 84.08H372.68C372.371 83.408 371.923 82.8907 371.336 82.528C370.76 82.1653 370.067 81.984 369.256 81.984C368.477 81.984 367.779 82.1653 367.16 82.528C366.541 82.8907 366.056 83.408 365.704 84.08C365.352 84.7413 365.176 85.52 365.176 86.416C365.176 87.3013 365.352 88.08 365.704 88.752C366.056 89.4133 366.541 89.9253 367.16 90.288C367.779 90.6507 368.477 90.832 369.256 90.832C370.067 90.832 370.76 90.656 371.336 90.304C371.923 89.9413 372.371 89.424 372.68 88.752H374.424C374.008 89.8187 373.347 90.6453 372.44 91.232C371.533 91.808 370.472 92.096 369.256 92.096C368.221 92.096 367.277 91.856 366.424 91.376C365.581 90.8853 364.915 90.208 364.424 89.344C363.933 88.48 363.688 87.504 363.688 86.416ZM382.655 92.144C381.834 92.144 381.087 91.9573 380.415 91.584C379.754 91.2107 379.231 90.6827 378.847 90C378.474 89.3067 378.287 88.5067 378.287 87.6C378.287 86.704 378.479 85.9147 378.863 85.232C379.258 84.5387 379.791 84.0107 380.463 83.648C381.135 83.2747 381.887 83.088 382.719 83.088C383.551 83.088 384.303 83.2747 384.975 83.648C385.647 84.0107 386.175 84.5333 386.559 85.216C386.954 85.8987 387.151 86.6933 387.151 87.6C387.151 88.5067 386.949 89.3067 386.543 90C386.149 90.6827 385.61 91.2107 384.927 91.584C384.245 91.9573 383.487 92.144 382.655 92.144ZM382.655 90.864C383.178 90.864 383.669 90.7413 384.127 90.496C384.586 90.2507 384.954 89.8827 385.231 89.392C385.519 88.9013 385.663 88.304 385.663 87.6C385.663 86.896 385.525 86.2987 385.247 85.808C384.97 85.3173 384.607 84.9547 384.159 84.72C383.711 84.4747 383.226 84.352 382.703 84.352C382.17 84.352 381.679 84.4747 381.231 84.72C380.794 84.9547 380.442 85.3173 380.175 85.808C379.909 86.2987 379.775 86.896 379.775 87.6C379.775 88.3147 379.903 88.9173 380.159 89.408C380.426 89.8987 380.778 90.2667 381.215 90.512C381.653 90.7467 382.133 90.864 382.655 90.864ZM392.762 80.16V92H391.306V80.16H392.762ZM398.939 80.16V92H397.483V80.16H398.939ZM411.661 87.28C411.661 87.5573 411.645 87.8507 411.613 88.16H404.605C404.658 89.024 404.951 89.7013 405.485 90.192C406.029 90.672 406.685 90.912 407.453 90.912C408.082 90.912 408.605 90.768 409.021 90.48C409.447 90.1813 409.746 89.7867 409.917 89.296H411.485C411.25 90.1387 410.781 90.8267 410.077 91.36C409.373 91.8827 408.498 92.144 407.453 92.144C406.621 92.144 405.874 91.9573 405.213 91.584C404.562 91.2107 404.05 90.6827 403.677 90C403.303 89.3067 403.117 88.5067 403.117 87.6C403.117 86.6933 403.298 85.8987 403.661 85.216C404.023 84.5333 404.53 84.0107 405.181 83.648C405.842 83.2747 406.599 83.088 407.453 83.088C408.285 83.088 409.021 83.2693 409.661 83.632C410.301 83.9947 410.791 84.496 411.133 85.136C411.485 85.7653 411.661 86.48 411.661 87.28ZM410.157 86.976C410.157 86.4213 410.034 85.9467 409.789 85.552C409.543 85.1467 409.207 84.8427 408.781 84.64C408.365 84.4267 407.901 84.32 407.389 84.32C406.653 84.32 406.023 84.5547 405.501 85.024C404.989 85.4933 404.695 86.144 404.621 86.976H410.157ZM419.439 83.088C420.196 83.088 420.857 83.2533 421.423 83.584C421.999 83.9147 422.425 84.3307 422.703 84.832V83.232H424.175V92.192C424.175 92.992 424.004 93.7013 423.663 94.32C423.321 94.9493 422.831 95.44 422.191 95.792C421.561 96.144 420.825 96.32 419.983 96.32C418.831 96.32 417.871 96.048 417.103 95.504C416.335 94.96 415.881 94.2187 415.743 93.28H417.183C417.343 93.8133 417.673 94.24 418.175 94.56C418.676 94.8907 419.279 95.056 419.983 95.056C420.783 95.056 421.433 94.8053 421.935 94.304C422.447 93.8027 422.703 93.0987 422.703 92.192V90.352C422.415 90.864 421.988 91.2907 421.423 91.632C420.857 91.9733 420.196 92.144 419.439 92.144C418.66 92.144 417.951 91.952 417.311 91.568C416.681 91.184 416.185 90.6453 415.823 89.952C415.46 89.2587 415.279 88.4693 415.279 87.584C415.279 86.688 415.46 85.904 415.823 85.232C416.185 84.5493 416.681 84.0213 417.311 83.648C417.951 83.2747 418.66 83.088 419.439 83.088ZM422.703 87.6C422.703 86.9387 422.569 86.3627 422.303 85.872C422.036 85.3813 421.673 85.008 421.215 84.752C420.767 84.4853 420.271 84.352 419.727 84.352C419.183 84.352 418.687 84.48 418.239 84.736C417.791 84.992 417.433 85.3653 417.167 85.856C416.9 86.3467 416.767 86.9227 416.767 87.584C416.767 88.256 416.9 88.8427 417.167 89.344C417.433 89.8347 417.791 90.2133 418.239 90.48C418.687 90.736 419.183 90.864 419.727 90.864C420.271 90.864 420.767 90.736 421.215 90.48C421.673 90.2133 422.036 89.8347 422.303 89.344C422.569 88.8427 422.703 88.2613 422.703 87.6ZM436.875 87.28C436.875 87.5573 436.859 87.8507 436.827 88.16H429.819C429.872 89.024 430.166 89.7013 430.699 90.192C431.243 90.672 431.899 90.912 432.667 90.912C433.296 90.912 433.819 90.768 434.235 90.48C434.662 90.1813 434.96 89.7867 435.131 89.296H436.699C436.464 90.1387 435.995 90.8267 435.291 91.36C434.587 91.8827 433.712 92.144 432.667 92.144C431.835 92.144 431.088 91.9573 430.427 91.584C429.776 91.2107 429.264 90.6827 428.891 90C428.518 89.3067 428.331 88.5067 428.331 87.6C428.331 86.6933 428.512 85.8987 428.875 85.216C429.238 84.5333 429.744 84.0107 430.395 83.648C431.056 83.2747 431.814 83.088 432.667 83.088C433.499 83.088 434.235 83.2693 434.875 83.632C435.515 83.9947 436.006 84.496 436.347 85.136C436.699 85.7653 436.875 86.48 436.875 87.28ZM435.371 86.976C435.371 86.4213 435.248 85.9467 435.003 85.552C434.758 85.1467 434.422 84.8427 433.995 84.64C433.579 84.4267 433.115 84.32 432.603 84.32C431.867 84.32 431.238 84.5547 430.715 85.024C430.203 85.4933 429.91 86.144 429.835 86.976H435.371ZM451.367 92.144C450.545 92.144 449.799 91.9573 449.127 91.584C448.465 91.2107 447.943 90.6827 447.559 90C447.185 89.3067 446.999 88.5067 446.999 87.6C446.999 86.704 447.191 85.9147 447.575 85.232C447.969 84.5387 448.503 84.0107 449.175 83.648C449.847 83.2747 450.599 83.088 451.431 83.088C452.263 83.088 453.015 83.2747 453.687 83.648C454.359 84.0107 454.887 84.5333 455.271 85.216C455.665 85.8987 455.863 86.6933 455.863 87.6C455.863 88.5067 455.66 89.3067 455.255 90C454.86 90.6827 454.321 91.2107 453.639 91.584C452.956 91.9573 452.199 92.144 451.367 92.144ZM451.367 90.864C451.889 90.864 452.38 90.7413 452.839 90.496C453.297 90.2507 453.665 89.8827 453.943 89.392C454.231 88.9013 454.375 88.304 454.375 87.6C454.375 86.896 454.236 86.2987 453.959 85.808C453.681 85.3173 453.319 84.9547 452.871 84.72C452.423 84.4747 451.937 84.352 451.415 84.352C450.881 84.352 450.391 84.4747 449.943 84.72C449.505 84.9547 449.153 85.3173 448.887 85.808C448.62 86.2987 448.487 86.896 448.487 87.6C448.487 88.3147 448.615 88.9173 448.871 89.408C449.137 89.8987 449.489 90.2667 449.927 90.512C450.364 90.7467 450.844 90.864 451.367 90.864ZM463.585 84.432H461.745V92H460.289V84.432H459.153V83.232H460.289V82.608C460.289 81.6267 460.54 80.912 461.041 80.464C461.553 80.0053 462.369 79.776 463.489 79.776V80.992C462.849 80.992 462.396 81.12 462.129 81.376C461.873 81.6213 461.745 82.032 461.745 82.608V83.232H463.585V84.432ZM475.452 80.848V87.904C475.452 88.896 475.692 89.632 476.172 90.112C476.663 90.592 477.34 90.832 478.204 90.832C479.058 90.832 479.724 90.592 480.204 90.112C480.695 89.632 480.94 88.896 480.94 87.904V80.848H482.396V87.888C482.396 88.816 482.21 89.6 481.836 90.24C481.463 90.8693 480.956 91.3387 480.316 91.648C479.687 91.9573 478.978 92.112 478.188 92.112C477.399 92.112 476.684 91.9573 476.044 91.648C475.415 91.3387 474.914 90.8693 474.54 90.24C474.178 89.6 473.996 88.816 473.996 87.888V80.848H475.452ZM491.337 83.072C492.404 83.072 493.268 83.3973 493.929 84.048C494.59 84.688 494.921 85.616 494.921 86.832V92H493.481V87.04C493.481 86.1653 493.262 85.4987 492.825 85.04C492.388 84.5707 491.79 84.336 491.033 84.336C490.265 84.336 489.652 84.576 489.193 85.056C488.745 85.536 488.521 86.2347 488.521 87.152V92H487.065V83.232H488.521V84.48C488.809 84.032 489.198 83.6853 489.689 83.44C490.19 83.1947 490.74 83.072 491.337 83.072ZM500.291 81.808C500.014 81.808 499.779 81.712 499.587 81.52C499.395 81.328 499.299 81.0933 499.299 80.816C499.299 80.5387 499.395 80.304 499.587 80.112C499.779 79.92 500.014 79.824 500.291 79.824C500.558 79.824 500.782 79.92 500.963 80.112C501.155 80.304 501.251 80.5387 501.251 80.816C501.251 81.0933 501.155 81.328 500.963 81.52C500.782 81.712 500.558 81.808 500.291 81.808ZM500.995 83.232V92H499.539V83.232H500.995ZM508.981 90.656L511.701 83.232H513.253L509.813 92H508.117L504.677 83.232H506.245L508.981 90.656ZM524.926 87.28C524.926 87.5573 524.91 87.8507 524.878 88.16H517.87C517.923 89.024 518.216 89.7013 518.75 90.192C519.294 90.672 519.95 90.912 520.718 90.912C521.347 90.912 521.87 90.768 522.286 90.48C522.712 90.1813 523.011 89.7867 523.182 89.296H524.75C524.515 90.1387 524.046 90.8267 523.342 91.36C522.638 91.8827 521.763 92.144 520.718 92.144C519.886 92.144 519.139 91.9573 518.478 91.584C517.827 91.2107 517.315 90.6827 516.942 90C516.568 89.3067 516.382 88.5067 516.382 87.6C516.382 86.6933 516.563 85.8987 516.926 85.216C517.288 84.5333 517.795 84.0107 518.446 83.648C519.107 83.2747 519.864 83.088 520.718 83.088C521.55 83.088 522.286 83.2693 522.926 83.632C523.566 83.9947 524.056 84.496 524.398 85.136C524.75 85.7653 524.926 86.48 524.926 87.28ZM523.422 86.976C523.422 86.4213 523.299 85.9467 523.054 85.552C522.808 85.1467 522.472 84.8427 522.046 84.64C521.63 84.4267 521.166 84.32 520.654 84.32C519.918 84.32 519.288 84.5547 518.766 85.024C518.254 85.4933 517.96 86.144 517.886 86.976H523.422ZM530.544 84.656C530.8 84.1547 531.162 83.7653 531.632 83.488C532.112 83.2107 532.693 83.072 533.376 83.072V84.576H532.992C531.36 84.576 530.544 85.4613 530.544 87.232V92H529.088V83.232H530.544V84.656ZM540.4 92.144C539.728 92.144 539.126 92.032 538.592 91.808C538.059 91.5733 537.638 91.2533 537.328 90.848C537.019 90.432 536.848 89.9573 536.816 89.424H538.32C538.363 89.8613 538.566 90.2187 538.928 90.496C539.302 90.7733 539.787 90.912 540.384 90.912C540.939 90.912 541.376 90.7893 541.696 90.544C542.016 90.2987 542.176 89.9893 542.176 89.616C542.176 89.232 542.006 88.9493 541.664 88.768C541.323 88.576 540.795 88.3893 540.08 88.208C539.43 88.0373 538.896 87.8667 538.48 87.696C538.075 87.5147 537.723 87.2533 537.424 86.912C537.136 86.56 536.992 86.1013 536.992 85.536C536.992 85.088 537.126 84.6773 537.392 84.304C537.659 83.9307 538.038 83.6373 538.528 83.424C539.019 83.2 539.579 83.088 540.208 83.088C541.179 83.088 541.963 83.3333 542.56 83.824C543.158 84.3147 543.478 84.9867 543.52 85.84H542.064C542.032 85.3813 541.846 85.0133 541.504 84.736C541.174 84.4587 540.726 84.32 540.16 84.32C539.638 84.32 539.222 84.432 538.912 84.656C538.603 84.88 538.448 85.1733 538.448 85.536C538.448 85.824 538.539 86.064 538.72 86.256C538.912 86.4373 539.147 86.5867 539.424 86.704C539.712 86.8107 540.107 86.9333 540.608 87.072C541.238 87.2427 541.75 87.4133 542.144 87.584C542.539 87.744 542.875 87.9893 543.152 88.32C543.44 88.6507 543.59 89.0827 543.6 89.616C543.6 90.096 543.467 90.528 543.2 90.912C542.934 91.296 542.555 91.6 542.064 91.824C541.584 92.0373 541.03 92.144 540.4 92.144ZM548.648 81.808C548.37 81.808 548.136 81.712 547.944 81.52C547.752 81.328 547.656 81.0933 547.656 80.816C547.656 80.5387 547.752 80.304 547.944 80.112C548.136 79.92 548.37 79.824 548.648 79.824C548.914 79.824 549.138 79.92 549.32 80.112C549.512 80.304 549.608 80.5387 549.608 80.816C549.608 81.0933 549.512 81.328 549.32 81.52C549.138 81.712 548.914 81.808 548.648 81.808ZM549.352 83.232V92H547.896V83.232H549.352ZM555.849 84.432V89.6C555.849 90.0267 555.94 90.3307 556.121 90.512C556.303 90.6827 556.617 90.768 557.065 90.768H558.137V92H556.825C556.015 92 555.407 91.8133 555.001 91.44C554.596 91.0667 554.393 90.4533 554.393 89.6V84.432H553.257V83.232H554.393V81.024H555.849V83.232H558.137V84.432H555.849ZM569.693 83.232L564.413 96.128H562.909L564.637 91.904L561.101 83.232H562.717L565.469 90.336L568.189 83.232H569.693ZM583.727 92.144C582.905 92.144 582.159 91.9573 581.487 91.584C580.825 91.2107 580.303 90.6827 579.919 90C579.545 89.3067 579.359 88.5067 579.359 87.6C579.359 86.704 579.551 85.9147 579.935 85.232C580.329 84.5387 580.863 84.0107 581.535 83.648C582.207 83.2747 582.959 83.088 583.791 83.088C584.623 83.088 585.375 83.2747 586.047 83.648C586.719 84.0107 587.247 84.5333 587.631 85.216C588.025 85.8987 588.223 86.6933 588.223 87.6C588.223 88.5067 588.02 89.3067 587.615 90C587.22 90.6827 586.681 91.2107 585.999 91.584C585.316 91.9573 584.559 92.144 583.727 92.144ZM583.727 90.864C584.249 90.864 584.74 90.7413 585.199 90.496C585.657 90.2507 586.025 89.8827 586.303 89.392C586.591 88.9013 586.735 88.304 586.735 87.6C586.735 86.896 586.596 86.2987 586.319 85.808C586.041 85.3173 585.679 84.9547 585.231 84.72C584.783 84.4747 584.297 84.352 583.775 84.352C583.241 84.352 582.751 84.4747 582.303 84.72C581.865 84.9547 581.513 85.3173 581.247 85.808C580.98 86.2987 580.847 86.896 580.847 87.6C580.847 88.3147 580.975 88.9173 581.231 89.408C581.497 89.8987 581.849 90.2667 582.287 90.512C582.724 90.7467 583.204 90.864 583.727 90.864ZM595.945 84.432H594.105V92H592.649V84.432H591.513V83.232H592.649V82.608C592.649 81.6267 592.9 80.912 593.401 80.464C593.913 80.0053 594.729 79.776 595.849 79.776V80.992C595.209 80.992 594.756 81.12 594.489 81.376C594.233 81.6213 594.105 82.032 594.105 82.608V83.232H595.945V84.432ZM607.844 90.816H611.748V92H606.388V80.848H607.844V90.816ZM623.311 83.232V92H621.855V90.704C621.577 91.152 621.188 91.504 620.687 91.76C620.196 92.0053 619.652 92.128 619.055 92.128C618.372 92.128 617.759 91.9893 617.215 91.712C616.671 91.424 616.239 90.9973 615.919 90.432C615.609 89.8667 615.455 89.1787 615.455 88.368V83.232H616.895V88.176C616.895 89.04 617.113 89.7067 617.551 90.176C617.988 90.6347 618.585 90.864 619.343 90.864C620.121 90.864 620.735 90.624 621.183 90.144C621.631 89.664 621.855 88.9653 621.855 88.048V83.232H623.311ZM627.465 87.6C627.465 86.6933 627.646 85.904 628.009 85.232C628.372 84.5493 628.873 84.0213 629.513 83.648C630.164 83.2747 630.905 83.088 631.737 83.088C632.814 83.088 633.7 83.3493 634.393 83.872C635.097 84.3947 635.561 85.12 635.785 86.048H634.217C634.068 85.5147 633.774 85.0933 633.337 84.784C632.91 84.4747 632.377 84.32 631.737 84.32C630.905 84.32 630.233 84.608 629.721 85.184C629.209 85.7493 628.953 86.5547 628.953 87.6C628.953 88.656 629.209 89.472 629.721 90.048C630.233 90.624 630.905 90.912 631.737 90.912C632.377 90.912 632.91 90.7627 633.337 90.464C633.764 90.1653 634.057 89.7387 634.217 89.184H635.785C635.55 90.08 635.081 90.8 634.377 91.344C633.673 91.8773 632.793 92.144 631.737 92.144C630.905 92.144 630.164 91.9573 629.513 91.584C628.873 91.2107 628.372 90.6827 628.009 90C627.646 89.3173 627.465 88.5173 627.465 87.6ZM644.864 92L641.424 88.128V92H639.968V80.16H641.424V87.12L644.8 83.232H646.832L642.704 87.6L646.848 92H644.864ZM654.714 83.072C655.781 83.072 656.645 83.3973 657.306 84.048C657.967 84.688 658.298 85.616 658.298 86.832V92H656.858V87.04C656.858 86.1653 656.639 85.4987 656.202 85.04C655.765 84.5707 655.167 84.336 654.41 84.336C653.642 84.336 653.029 84.576 652.57 85.056C652.122 85.536 651.898 86.2347 651.898 87.152V92H650.442V83.232H651.898V84.48C652.186 84.032 652.575 83.6853 653.066 83.44C653.567 83.1947 654.117 83.072 654.714 83.072ZM666.74 92.144C665.919 92.144 665.172 91.9573 664.5 91.584C663.839 91.2107 663.316 90.6827 662.932 90C662.559 89.3067 662.372 88.5067 662.372 87.6C662.372 86.704 662.564 85.9147 662.948 85.232C663.343 84.5387 663.876 84.0107 664.548 83.648C665.22 83.2747 665.972 83.088 666.804 83.088C667.636 83.088 668.388 83.2747 669.06 83.648C669.732 84.0107 670.26 84.5333 670.644 85.216C671.039 85.8987 671.236 86.6933 671.236 87.6C671.236 88.5067 671.034 89.3067 670.628 90C670.234 90.6827 669.695 91.2107 669.012 91.584C668.33 91.9573 667.572 92.144 666.74 92.144ZM666.74 90.864C667.263 90.864 667.754 90.7413 668.212 90.496C668.671 90.2507 669.039 89.8827 669.316 89.392C669.604 88.9013 669.748 88.304 669.748 87.6C669.748 86.896 669.61 86.2987 669.332 85.808C669.055 85.3173 668.692 84.9547 668.244 84.72C667.796 84.4747 667.311 84.352 666.788 84.352C666.255 84.352 665.764 84.4747 665.316 84.72C664.879 84.9547 664.527 85.3173 664.26 85.808C663.994 86.2987 663.86 86.896 663.86 87.6C663.86 88.3147 663.988 88.9173 664.244 89.408C664.511 89.8987 664.863 90.2667 665.3 90.512C665.738 90.7467 666.218 90.864 666.74 90.864ZM687.071 83.232L684.335 92H682.831L680.719 85.04L678.607 92H677.103L674.351 83.232H675.839L677.855 90.592L680.031 83.232H681.519L683.647 90.608L685.631 83.232H687.071Z" fill="black"/>
<rect width="1080" height="113" fill="white" fill-opacity="0.2"/>
</svg>
