<svg width="86" height="97" viewBox="0 0 86 97" fill="none" xmlns="http://www.w3.org/2000/svg">
<g id="Vector">
<path d="M44.1416 0H18.2655C15.3232 0 12.9381 2.39369 12.9381 5.34645V91.6535C12.9381 94.6063 15.3232 97 18.2655 97H80.6726C83.6148 97 86 94.6063 86 91.6535V42.0079L85.6557 36.5951C85.1062 32.3077 83.9125 28.2227 82.1754 24.4409H66.5929C63.6507 24.4409 61.2655 22.0473 61.2655 19.0945V3.66456C56.5822 1.55483 51.4423 0.283882 46.0357 0.042242L44.1416 0Z" fill="#C7C7C7"/>
<path d="M46.0357 0.042242C51.4423 0.283882 56.5822 1.55483 61.2655 3.66456V0.38189L46.0357 0.042242Z" fill="#C7C7C7"/>
<path d="M61.2655 19.0945C61.2655 22.0473 63.6507 24.4409 66.5929 24.4409H82.1754C80.9306 21.731 79.4067 19.1769 77.6406 16.8155L69.2443 8.38923C66.7811 6.53386 64.1074 4.94478 61.2655 3.66456V19.0945Z" fill="#919191"/>
<path d="M61.2655 0.38189V3.66456C64.1074 4.94478 66.7811 6.53386 69.2443 8.38923L61.2655 0.38189Z" fill="#919191"/>
<path d="M82.1754 24.4409H84.8584L77.6406 16.8155C79.4067 19.1769 80.9306 21.731 82.1754 24.4409Z" fill="#919191"/>
<path d="M82.1754 24.4409C83.9125 28.2227 85.1062 32.3077 85.6557 36.5951L84.8584 24.4409H82.1754Z" fill="#C7C7C7"/>
<path d="M0 48.8819C0 46.7728 1.7037 45.063 3.80531 45.063H70.0177C72.1193 45.063 73.823 46.7728 73.823 48.8819V77.9055C73.823 80.0146 72.1193 81.7244 70.0177 81.7244H3.80531C1.7037 81.7244 0 80.0146 0 77.9055V48.8819Z" fill="#023E7D"/>
<path d="M9.97372 71.0315C9.70532 71.0315 9.47192 70.932 9.27354 70.7329C9.08683 70.5338 8.99347 70.2995 8.99347 70.0302V59.209C8.99347 58.9396 9.08683 58.7054 9.27354 58.5063C9.47192 58.3072 9.70532 58.2076 9.97372 58.2076H10.3588C11.024 58.2076 11.5141 58.5004 11.8292 59.086L16.1528 66.9208C16.1528 66.9325 16.1586 66.9384 16.1703 66.9384C16.182 66.9384 16.1878 66.9325 16.1878 66.9208V59.209C16.1878 58.9396 16.287 58.7054 16.4854 58.5063C16.6837 58.3072 16.9171 58.2076 17.1855 58.2076H17.5706C17.839 58.2076 18.0666 58.3072 18.2533 58.5063C18.4517 58.7054 18.5509 58.9396 18.5509 59.209V70.0302C18.5509 70.2995 18.4517 70.5338 18.2533 70.7329C18.0666 70.932 17.839 71.0315 17.5706 71.0315H17.1855C16.5204 71.0315 16.0302 70.7387 15.7152 70.1531L11.3916 62.3183C11.3916 62.3066 11.3857 62.3007 11.3741 62.3007C11.3624 62.3007 11.3566 62.3066 11.3566 62.3183V70.0302C11.3566 70.2995 11.2574 70.5338 11.059 70.7329C10.8606 70.932 10.6272 71.0315 10.3588 71.0315H9.97372Z" fill="#C7C7C7"/>
<path d="M29.6855 64.6196C29.6855 61.5746 28.5769 60.0522 26.3596 60.0522C24.1424 60.0522 23.0338 61.5746 23.0338 64.6196C23.0338 67.6645 24.1424 69.187 26.3596 69.187C28.5769 69.187 29.6855 67.6645 29.6855 64.6196ZM30.6132 69.468C29.5746 70.6275 28.1568 71.2072 26.3596 71.2072C24.5625 71.2072 23.1388 70.6275 22.0886 69.468C21.05 68.3086 20.5307 66.6925 20.5307 64.6196C20.5307 62.5467 21.05 60.9305 22.0886 59.7711C23.1388 58.6117 24.5625 58.032 26.3596 58.032C28.1568 58.032 29.5746 58.6117 30.6132 59.7711C31.6635 60.9305 32.1886 62.5467 32.1886 64.6196C32.1886 66.6925 31.6635 68.3086 30.6132 69.468Z" fill="#C7C7C7"/>
<path d="M34.0325 60.2454C33.7641 60.2454 33.5307 60.1517 33.3323 59.9643C33.1339 59.7652 33.0347 59.531 33.0347 59.2617V59.209C33.0347 58.9396 33.1339 58.7054 33.3323 58.5063C33.5307 58.3072 33.7641 58.2076 34.0325 58.2076H41.4893C41.7577 58.2076 41.9911 58.3072 42.1895 58.5063C42.3879 58.7054 42.4871 58.9396 42.4871 59.209V59.2617C42.4871 59.531 42.3879 59.7652 42.1895 59.9643C41.9911 60.1517 41.7577 60.2454 41.4893 60.2454H39.1437C39.0504 60.2454 39.0037 60.2981 39.0037 60.4035V70.0302C39.0037 70.2995 38.9045 70.5338 38.7061 70.7329C38.5078 70.932 38.2744 71.0315 38.006 71.0315H37.5158C37.2474 71.0315 37.014 70.932 36.8157 70.7329C36.6173 70.5338 36.5181 70.2995 36.5181 70.0302V60.4035C36.5181 60.2981 36.4714 60.2454 36.378 60.2454H34.0325Z" fill="#C7C7C7"/>
<path d="M45.8206 71.0315C45.5522 71.0315 45.3188 70.932 45.1204 70.7329C44.922 70.5338 44.8228 70.2995 44.8228 70.0302V59.209C44.8228 58.9396 44.922 58.7054 45.1204 58.5063C45.3188 58.3072 45.5522 58.2076 45.8206 58.2076H51.7721C52.0405 58.2076 52.2739 58.3072 52.4723 58.5063C52.6707 58.7054 52.7699 58.9396 52.7699 59.209C52.7699 59.4783 52.6707 59.7125 52.4723 59.9116C52.2739 60.099 52.0405 60.1927 51.7721 60.1927H47.431C47.326 60.1927 47.2735 60.2454 47.2735 60.3508V63.1791C47.2735 63.2845 47.326 63.3372 47.431 63.3372H51.4745C51.7429 63.3372 51.9646 63.4309 52.1397 63.6183C52.3264 63.8056 52.4198 64.0281 52.4198 64.2858C52.4198 64.5434 52.3264 64.766 52.1397 64.9533C51.9646 65.129 51.7429 65.2168 51.4745 65.2168H47.431C47.326 65.2168 47.2735 65.2695 47.2735 65.3749V68.8883C47.2735 68.9937 47.326 69.0464 47.431 69.0464H51.7721C52.0405 69.0464 52.2739 69.146 52.4723 69.3451C52.6707 69.5324 52.7699 69.7608 52.7699 70.0302C52.7699 70.2995 52.6707 70.5338 52.4723 70.7329C52.2739 70.932 52.0405 71.0315 51.7721 71.0315H45.8206Z" fill="#C7C7C7"/>
<path d="M58.7178 65.6209C57.3174 65.1524 56.3022 64.5844 55.672 63.9169C55.0535 63.2493 54.7443 62.4413 54.7443 61.4927C54.7443 60.4269 55.1002 59.5837 55.8121 58.963C56.5239 58.3423 57.5217 58.032 58.8053 58.032C59.8906 58.032 60.8358 58.1549 61.641 58.4009C61.9211 58.4828 62.1428 58.6527 62.3062 58.9103C62.4813 59.1562 62.5688 59.4315 62.5688 59.736V59.8941C62.5688 60.1166 62.4696 60.2922 62.2712 60.4211C62.0728 60.5382 61.8686 60.5558 61.6585 60.4738C60.7833 60.1341 59.8906 59.9643 58.9804 59.9643C58.3969 59.9643 57.9534 60.099 57.65 60.3684C57.3466 60.6377 57.1949 61.0125 57.1949 61.4927C57.1949 62.3359 57.7434 62.939 58.8403 63.302C60.4157 63.8056 61.5068 64.3795 62.1137 65.0236C62.7321 65.6677 63.0414 66.4992 63.0414 67.5181C63.0414 69.9775 61.5302 71.2072 58.5077 71.2072C57.5625 71.2072 56.7048 71.0608 55.9346 70.768C55.6545 70.6626 55.4328 70.4811 55.2694 70.2234C55.1177 69.9658 55.0419 69.6788 55.0419 69.3626V69.1518C55.0419 68.9293 55.1352 68.7712 55.3219 68.6775C55.5087 68.5721 55.7012 68.5663 55.8996 68.66C56.6698 69.0464 57.4808 69.2397 58.3327 69.2397C59.8147 69.2397 60.5558 68.6775 60.5558 67.5532C60.5558 67.0965 60.4157 66.7217 60.1357 66.429C59.8556 66.1245 59.383 65.8551 58.7178 65.6209Z" fill="#C7C7C7"/>
</g>
</svg>
